<svg width="46" height="50" viewBox="0 0 46 50" fill="none" xmlns="http://www.w3.org/2000/svg">
<path d="M37.5854 32.0265C35.0998 36.3221 32.1363 40.3444 30.1557 44.8968C22.4007 38.2345 10.592 36.6948 6.02222 26.5532C4.79316 23.8197 4.10054 20.7285 4.6103 17.7387C4.7842 16.7244 5.24624 14.4127 6.18162 13.8308C7.14856 13.2275 9.1688 13.8361 10.1458 14.1617C16.5047 16.2973 18.455 23.43 21.0696 28.8622C21.5133 29.7837 25.3748 27.322 25.5023 26.5105C26.555 19.8049 28.3985 13.1367 31.2543 6.95967C31.8601 5.64632 32.8669 3.04631 34.4748 2.84877C35.984 2.66192 37.5246 3.72965 38.4477 4.79208C40.4497 7.10379 40.8267 10.4459 41.2059 13.3556C42.0906 20.1519 41.0128 26.1047 37.5854 32.0265V32.0265ZM45.9537 14.2258C45.6876 9.62373 45.262 1.24713 39.4439 0.125973C34.4641 -0.829677 29.4443 3.83645 27.3954 7.88328C25.4122 11.802 23.911 16.009 22.7868 20.3067C21.26 17.1034 19.3999 14.1083 16.2328 12.2931C11.7023 9.69846 6.31072 11.0813 2.74861 14.7117C-0.99962 18.5396 -0.4361 24.5778 1.60285 29.1051C3.89058 34.1834 8.24638 37.4267 13.0164 39.9968C18.3222 42.8553 24.1093 45.1104 28.1084 49.8208C28.8892 50.7402 33.0253 47.8519 32.5277 47.2667C32.3171 47.0179 32.099 46.7777 31.8777 46.5412C32.6376 46.1429 33.5255 45.5658 33.7799 44.837C35.6464 39.4939 39.1191 35.0211 41.9034 30.1547C44.7735 25.1384 46.2907 20.0558 45.9537 14.2258" fill="#B76E79"/>
</svg>
